<?xml version="1.0" encoding="UTF-8"?>
<svg width="166px" height="182px" viewBox="0 0 166 182" version="1.1" xmlns="http://www.w3.org/2000/svg" xmlns:xlink="http://www.w3.org/1999/xlink">
    <!-- Generator: Sketch 43.2 (39069) - http://www.bohemiancoding.com/sketch -->
    <title>Group</title>
    <desc>Created with Sketch.</desc>
    <defs></defs>
    <g id="Page-1" stroke="none" stroke-width="1" fill="none" fill-rule="evenodd">
        <g id="Group">
            <path d="M35.596,104.09 L35.837,110.414 C35.837,110.414 26.381,106.921 20.117,109.089 C3.727,114.763 9.239,135.84 17.948,144.443 C26.658,153.046 40.662,160.854 40.835,159.982 C41.009,159.11 27.706,160.584 19.876,152.996 C12.046,145.407 5.421,139.384 3.614,131.072 C1.232,120.116 4.253,103.739 16.803,101.439 C24.552,99.932 35.596,104.09 35.596,104.09" id="Fill-55" fill="#B09798"></path>
            <path d="M165.114,92.469 C165.024,91.426 163.869,90.849 161.846,90.02 C146.795,83.856 98.377,84.002 78.253,85.132 C72.836,85.436 36.61,88.125 38.122,92.695 C39.701,97.464 76.29,99.768 84.273,100.098 C100.89,100.784 159.491,101.068 165.114,92.469 Z M113.473,102.018 C95.698,102.554 42.951,102.379 34.07,94.444 C25.841,87.092 61.589,84.077 69.121,83.553 C92.345,81.94 141.85,81.629 160.373,88.727 C183.325,97.522 121.499,101.776 113.473,102.018 L113.473,102.018 Z" id="Fill-56" fill="#40161D"></path>
            <path d="M56.551,165.367 C42.729,148.904 41.274,119.659 38.641,95.051 C36.26,94.386 34.308,93.631 32.906,92.777 C35.803,119.066 37.354,149.912 56.551,165.367" id="Fill-57" fill="#40161D"></path>
            <path d="M161.043,95.406 C160.681,113.876 157.643,145.745 145.227,162.642 C164.967,143.798 165.577,91.302 165.325,92.31 C165.751,93.171 164.235,93.9 161.043,95.406" id="Fill-58" fill="#40161D"></path>
            <path d="M145.227,162.642 C135.906,171.54 121.583,177.086 99.091,177.086 C78.995,177.086 65.607,172.658 56.551,165.367 C64.727,175.106 77.867,181.256 99.531,181.256 C123.151,181.256 136.921,173.945 145.227,162.642" id="Fill-59" fill="#40161D"></path>
            <path d="M95.329,110.851 C104.738,112.246 119.411,113.56 137.977,112.454 C141.808,140.947 134.309,165.218 100.889,171.949 C153.143,174.306 157.098,131.007 158.009,102.755 C143.495,107.761 122.799,110.893 99.823,110.893 C98.314,110.893 96.817,110.878 95.329,110.851" id="Fill-60" fill="#B09798"></path>
            <path d="M44.918,103.825 C47.169,123.084 48.222,153.782 61.759,163.774 C66.818,167.508 80.309,172.206 79.346,171.483 C60.638,157.451 59.231,129.198 59.996,107.461 C54.524,106.442 49.464,105.219 44.918,103.825" id="Fill-61" fill="#B09798"></path>
            <path d="M102.299,90.905 C78.64,90.905 57.971,92.575 46.842,95.06 C57.971,97.546 78.64,99.216 102.299,99.216 C125.958,99.216 146.627,97.546 157.756,95.06 C146.627,92.575 125.958,90.905 102.299,90.905" id="Fill-62" fill="#935140"></path>
            <path d="M37.426,107.276 C27.478,103.033 15.616,98.103 8.324,110.061 C-0.465,124.473 9.34,143.566 22.044,151.783 C32.798,158.739 40.756,158.755 52.191,161.284 C34.773,163.867 14.208,156.014 5.076,140.496 C-3.085,126.628 -0.501,102.935 17.085,99.97 C22.454,99.065 30.679,100.494 34.922,102.966 C37.036,104.197 35.491,105.597 37.426,107.276" id="Fill-63" fill="#40161D"></path>
            <path d="M36.259,115.114 C12.082,102.495 0.45,136.047 39.03,153.178 C26.219,150.392 13.188,138.965 12.455,126.416 C11.216,105.215 34.583,108.483 36.259,115.114" id="Fill-64" fill="#40161D"></path>
            <path d="M111.516,75.974 C100.147,73.466 93.108,70.158 102.589,62.98 C107.377,59.356 124.076,51.431 122.713,46.765 C121.086,41.199 103.273,40.841 98.493,37.208 C88.189,29.378 119.672,15.976 97.853,4.402 L95.293,3.111 L95.293,3.11 C113.781,9.525 106.644,18.12 100.773,27.814 C94.656,37.914 102.495,37.064 113.569,39.812 C136.778,45.57 121.429,53.948 110.366,60.871 C99.574,67.625 97.107,70.387 112.505,73.637 L111.516,75.974" id="Fill-65" fill="#CD876A"></path>
            <path d="M95.207,77.056 C72.624,72.714 62.665,67.506 86.719,57.979 C90.557,56.459 111.246,49.965 106.379,46.825 C98.773,41.919 74.242,43.889 86.413,30.208 C94.549,21.061 106.402,13.612 90.469,4.193 C88.846,3.234 85.449,1.549 83.795,0.709 C88.169,2.167 90.364,2.852 93.957,5.167 C107.9,14.15 95.91,22.872 88.935,31.208 C81.888,39.63 89.867,39.622 100.401,41.988 C131.594,48.993 86.204,59.561 78.941,65.646 C73.177,70.476 92.436,73.001 96.474,73.732 L95.207,77.056" id="Fill-66" fill="#CD876A"></path>
        </g>
    </g>
</svg>